<?xml version="1.0" encoding="UTF-8" standalone="no"?>
<svg width="64px" height="64px" viewBox="0 0 64 64" version="1.1" xmlns="http://www.w3.org/2000/svg" xmlns:xlink="http://www.w3.org/1999/xlink">
    <!-- Generator: Sketch 43.1 (39012) - http://www.bohemiancoding.com/sketch -->
    <title>front</title>
    <desc>Created with Sketch.</desc>
    <defs></defs>
    <g id="Page-1" stroke="none" stroke-width="1" fill="none" fill-rule="evenodd">
        <g id="front" fill-rule="nonzero">
            <g id="002-ux-design">
                <path d="M64,18.75 L64,58.375 C64,61.487625 61.487625,64 58.375,64 L5.625,64 C2.512375,64 0,61.487625 0,58.375 L0,18.75 L6.15,15 L61.074875,15 L64,18.75 Z" id="Shape" fill="#A2CDFF"></path>
                <path d="M64,18.75 L64,58.375 C64,61.487625 61.487625,64 58.375,64 L32,64 L32,15 L61.074875,15 L64,18.75 Z" id="Shape" fill="#89C8FF"></path>
                <path d="M64,5.625 L64,18.75 L18.875,18.75 L15.125,15.374875 L15.125,3.7875 L18.875,0 L58.375,0 C61.487625,0 64,2.512375 64,5.625 Z" id="Shape" fill="#0053BF"></path>
                <path d="M64,5.625 L64,18.75 L32,18.75 L32,0 L58.375,0 C61.487625,0 64,2.512375 64,5.625 Z" id="Shape" fill="#05377F"></path>
                <g id="Group" transform="translate(26.375000, 7.500000)" fill="#BFE1FF">
                    <path d="M28.25,3.75 L24.375,3.75 C23.338625,3.75 22.5,2.911375 22.5,1.875 C22.5,0.838625 23.338625,0 24.375,0 L28.25,0 C29.286375,0 30.125,0.838625 30.125,1.875 C30.125,2.911375 29.286375,3.75 28.25,3.75 Z" id="Shape"></path>
                    <path d="M16.875,3.75 L13.125,3.75 C12.088625,3.75 11.25,2.911375 11.25,1.875 C11.25,0.838625 12.088625,0 13.125,0 L16.875,0 C17.911375,0 18.75,0.838625 18.75,1.875 C18.75,2.911375 17.911375,3.75 16.875,3.75 Z" id="Shape"></path>
                    <path d="M7.5,1.875 C7.5,2.925125 6.675125,3.75 5.625,3.75 L1.875,3.75 C0.824875,3.75 0,2.925125 0,1.875 C0,0.824875 0.824875,0 1.875,0 L5.625,0 C6.675125,0 7.5,0.824875 7.5,1.875 Z" id="Shape"></path>
                    <path d="M5.625,3.75 L5.625,0 C6.675125,0 7.5,0.824875 7.5,1.875 C7.5,2.925125 6.675125,3.75 5.625,3.75 Z" id="Shape"></path>
                </g>
                <path d="M18.875,18.75 L0,18.75 L0,5.625 C0,2.52325 2.52325,0 5.625,0 L18.875,0 L18.875,18.75 Z" id="Shape" fill="#B674F2"></path>
                <path d="M48.875,43.375 L48.875,47.125 C48.875,48.175125 48.050125,49 47,49 C45.949875,49 45.125,48.175125 45.125,47.125 L45.125,43.375 C45.125,42.324875 44.300125,41.5 43.25,41.5 L33.875,41.5 L33.875,47.125 C33.875,48.175125 33.050125,49 32,49 C30.949875,49 30.125,48.175125 30.125,47.125 L30.125,41.5 L20.75,41.5 C19.699875,41.5 18.875,42.324875 18.875,43.375 L18.875,47.125 C18.875,48.175125 18.050125,49 17,49 C15.949875,49 15.125,48.175125 15.125,47.125 L15.125,43.375 C15.125,40.262375 17.637375,37.75 20.75,37.75 L30.125,37.75 L30.125,32 C30.125,30.949875 30.949875,30.125 32,30.125 C33.050125,30.125 33.875,30.949875 33.875,32 L33.875,37.75 L43.25,37.75 C46.362625,37.75 48.875,40.262375 48.875,43.375 Z" id="Shape" fill="#1689FC"></path>
                <path d="M48.875,43.375 L48.875,47.125 C48.875,48.175125 48.050125,49 47,49 C45.949875,49 45.125,48.175125 45.125,47.125 L45.125,43.375 C45.125,42.324875 44.300125,41.5 43.25,41.5 L33.875,41.5 L33.875,47.125 C33.875,48.175125 33.050125,49 32,49 L32,30.125 C33.050125,30.125 33.875,30.949875 33.875,32 L33.875,37.75 L43.25,37.75 C46.362625,37.75 48.875,40.262375 48.875,43.375 Z" id="Shape" fill="#136EF1"></path>
                <g id="Group" transform="translate(11.375000, 22.625000)" fill="#65B1FC">
                    <path d="M20.625,0 C17.512375,0 15,2.512375 15,5.625 C15,8.737625 17.512375,11.25 20.625,11.25 C23.737625,11.25 26.25,8.737625 26.25,5.625 C26.25,2.512375 23.737625,0 20.625,0 Z" id="Shape"></path>
                    <path d="M5.625,33.875 C2.52325,33.875 0,31.35175 0,28.25 C0,25.14825 2.52325,22.625 5.625,22.625 C8.72675,22.625 11.25,25.14825 11.25,28.25 C11.25,31.35175 8.72675,33.875 5.625,33.875 Z" id="Shape"></path>
                    <path d="M20.625,22.625 C17.512375,22.625 15,25.137375 15,28.25 C15,31.362625 17.512375,33.875 20.625,33.875 C23.737625,33.875 26.25,31.362625 26.25,28.25 C26.25,25.137375 23.737625,22.625 20.625,22.625 Z" id="Shape"></path>
                </g>
                <g id="Group" transform="translate(32.000000, 22.625000)" fill="#1689FC">
                    <path d="M15,33.875 C11.89825,33.875 9.375,31.35175 9.375,28.25 C9.375,25.14825 11.89825,22.625 15,22.625 C18.10175,22.625 20.625,25.14825 20.625,28.25 C20.625,31.35175 18.10175,33.875 15,33.875 Z" id="Shape"></path>
                    <path d="M5.625,28.25 C5.625,31.362625 3.112625,33.875 0,33.875 L0,22.625 C3.112625,22.625 5.625,25.137375 5.625,28.25 Z" id="Shape"></path>
                    <path d="M0,11.25 L0,0 C3.112625,0 5.625,2.512375 5.625,5.625 C5.625,8.737625 3.112625,11.25 0,11.25 Z" id="Shape"></path>
                </g>
            </g>
        </g>
    </g>
</svg>