<?xml version="1.0" encoding="UTF-8" standalone="no"?>
<svg width="65px" height="64px" viewBox="0 0 65 64" version="1.1" xmlns="http://www.w3.org/2000/svg" xmlns:xlink="http://www.w3.org/1999/xlink">
    <!-- Generator: Sketch 43.1 (39012) - http://www.bohemiancoding.com/sketch -->
    <title>ui</title>
    <desc>Created with Sketch.</desc>
    <defs></defs>
    <g id="Page-1" stroke="none" stroke-width="1" fill="none" fill-rule="evenodd">
        <g id="ui" transform="translate(0.666667, 0.000000)">
            <rect id="Rectangle" fill="#9AF2DE" x="0" y="0" width="64" height="64" rx="5.5"></rect>
            <path d="M0,5.49812616 C0,2.46159493 2.45785189,0 5.50099611,0 L32,0 L32,64 L5.50099611,64 C2.46287985,64 0,61.5303394 0,58.5018738 L0,5.49812616 Z" id="Rectangle-Copy-2" fill="#C5F5E6"></path>
            <g id="004-vector-file" transform="translate(4.000000, 7.000000)" fill-rule="nonzero">
                <g id="Group">
                    <g transform="translate(13.095238, 3.463203)" id="Shape">
                        <polygon fill="#FFB823" points="4.14935065 0.0183982684 0.0692640693 3.46699134 4.14935065 6.91558442 9.22510823 10.0324675 15.6103896 6.91558442 18.3809524 3.46699134 15.6103896 0.0183982684"></polygon>
                        <polygon fill="#FF9100" points="38.8668831 0.0183982684 14.9047619 0.0183982684 14.9047619 6.91558442 26.9334416 12.9935065 38.8668831 6.91558442"></polygon>
                    </g>
                    <g id="Shape">
                        <path d="M17.2445887,10.3787879 L17.2445887,3.48160173 C17.2445887,1.57683983 15.7002165,0.0324675325 13.7954545,0.0324675325 L0,0.0324675325 L0,45.0974026 L27.7056277,45.0974026 L35.1612554,25.7294372 L28.7056277,10.3787879 L17.2445887,10.3787879 Z" fill="#FFDE46"></path>
                        <polygon fill="#FFB823" points="28 10.3787879 55.4112554 10.3787879 55.4112554 45.0974026 28 45.0974026"></polygon>
                    </g>
                </g>
                <polygon id="Shape" fill="#6491FB" points="16.4198052 21.8642857 16.4198052 25.111039 23.1357106 25.111039 25 23.4876623 23.1357106 21.8642857"></polygon>
                <polygon id="Shape" fill="#565CD8" points="38.9914502 21.8642857 32.5757576 21.8642857 30.8951299 23.4876623 32.5757576 25.111039 38.9914502 25.111039"></polygon>
                <g id="Group" transform="translate(22.835498, 21.861472)">
                    <polygon id="Shape" fill="#565CD8" points="0.164502165 0.00281385281 0.164502165 9.41839827 5.87012987 9.41839827 8.6452381 4.71060606 5.87012987 0.00281385281"></polygon>
                    <polygon id="Shape" fill="#264498" points="5.16450216 0.00281385281 10.1645022 0.00281385281 10.1645022 9.41839827 5.16450216 9.41839827"></polygon>
                </g>
                <g id="Group" transform="translate(14.502165, 28.354978)">
                    <path d="M0.0155844156,13.1900433 L3.26233766,13.1900433 C3.26233766,7.70887446 7.72164502,3.2495671 13.2029221,3.2495671 L13.4978355,3.2495671 L15.6385281,1.55119048 L13.4978355,0.00281385281 L13.2029221,0.00281385281 C5.93149351,0.00281385281 0.0155844156,5.91861472 0.0155844156,13.1900433 Z" id="Shape" fill="#6491FB"></path>
                    <path d="M13.4978355,0.00281385281 L13.4978355,3.2495671 C18.9794372,3.24989177 23.1444805,7.70898268 23.1444805,13.1900433 L26.3912338,13.1900433 C26.3912338,5.91872294 20.4753247,0.00303030303 13.2034632,0.00281385281 L13.4978355,0.00281385281 Z" id="Shape" fill="#565CD8"></path>
                </g>
                <polygon id="Shape" fill="#565CD8" points="11.2711039 40.2272727 21.0113636 40.2272727 21.0113636 49.9675325 11.2711039 49.9675325"></polygon>
                <polygon id="Shape" fill="#264498" points="34.3998918 40.2272727 44.1401515 40.2272727 44.1401515 49.9675325 34.3998918 49.9675325"></polygon>
                <circle id="Oval" fill="#DF5E8D" cx="12.8944805" cy="23.4876623" r="4.87012987"></circle>
                <ellipse id="Oval" fill="#B21970" cx="42.5167749" cy="23.4876623" rx="4.87012987" ry="4.87012987"></ellipse>
            </g>
        </g>
    </g>
</svg>