<?xml version="1.0" encoding="UTF-8" standalone="no"?>
<svg width="65px" height="64px" viewBox="0 0 65 64" version="1.1" xmlns="http://www.w3.org/2000/svg" xmlns:xlink="http://www.w3.org/1999/xlink">
    <!-- Generator: Sketch 43.1 (39012) - http://www.bohemiancoding.com/sketch -->
    <title>web</title>
    <desc>Created with Sketch.</desc>
    <defs></defs>
    <g id="Page-1" stroke="none" stroke-width="1" fill="none" fill-rule="evenodd">
        <g id="web" transform="translate(0.333333, 0.000000)" fill-rule="nonzero">
            <g id="003-interface">
                <g id="Group">
                    <g id="Shape">
                        <path d="M5.50099611,0 C2.46287985,0 0,2.45472917 0,5.50580437 L0,15.93375 L15.705125,22.746375 L32,15.93375 L38.681625,7.966875 L32,0 L5.50099611,0 Z" fill="#BEEBFA"></path>
                        <path d="M64,5.50580437 C64,2.46503258 61.5421481,0 58.4990039,0 L32,0 L32,15.93375 L48.862625,22.797875 L64,15.93375 L64,5.50580437 Z" fill="#8CBCFF"></path>
                    </g>
                    <g transform="translate(0.000000, 15.875000)" id="Shape">
                        <path d="M0,0.05875 L0,42.6346084 C0,45.666868 2.45785189,48.125 5.50099611,48.125 L32,48.125 L46.419875,19.954125 L32,0.05875 L0,0.05875 Z" fill="#F5F5F5"></path>
                        <path d="M32,0.05875 L64,0.05875 L64,42.6346084 C64,45.666868 61.5421481,48.125 58.4990039,48.125 L32,48.125 L32,0.05875 Z" fill="#D7D3EC"></path>
                    </g>
                    <g transform="translate(5.875000, 6.000000)" id="Shape">
                        <g fill="#8CBCFF">
                            <polygon points="0.0825 0.091875 4.065875 0.091875 4.065875 3.841875 0.0825 3.841875"></polygon>
                            <polygon points="8.049375 0.091875 12.03275 0.091875 12.03275 3.841875 8.049375 3.841875"></polygon>
                            <polygon points="16.016125 0.091875 19.9995 0.091875 19.9995 3.841875 16.016125 3.841875"></polygon>
                        </g>
                        <polygon fill="#7C84E8" points="32.250375 0.091875 52.167375 0.091875 52.167375 3.841875 32.250375 3.841875"></polygon>
                    </g>
                </g>
                <g id="Group" transform="translate(7.875000, 26.000000)">
                    <g id="Shape">
                        <g>
                            <polygon fill="#8CBCFF" points="0.09125 0.058125 0.09125 12.009375 7.830125 12.009375 9.705125 10.06525 11.580125 12.009375 17.443375 12.009375 19.318375 10.4905 21.193375 12.009375 24.125 12.009375 30.806625 7.1335 24.125 0.058125"></polygon>
                            <polygon fill="#7C84E8" points="48.15875 0.058125 24.125 0.058125 24.125 12.009375 27.056625 12.009375 28.931625 10.25425 30.806625 12.009375 36.669875 12.009375 38.544875 9.829125 40.419875 12.009375 48.15875 12.009375"></polygon>
                        </g>
                        <g transform="translate(0.000000, 19.875000)">
                            <path d="M8.05875,0.034375 L11.580125,4.216875 L8.05875,8.000625 L4.075,8.000625 C1.875,8.000625 0.09125,6.218125 0.09125,4.018125 C0.09125,2.918125 0.5375,1.921875 1.2575,1.201875 C1.97875,0.480625 2.975,0.034375 4.075,0.034375 L8.05875,0.034375 Z" fill="#FF6699"></path>
                            <polygon fill="#FFF36C" points="8.05875 0.034375 8.05875 8.000625 24.125 8.000625 28.931625 4.216875 24.125 0.034375"></polygon>
                            <polygon fill="#FFD422" points="42.562375 2.14275 38.5425 0.034375 24.125 0.034375 24.125 8.000625 38.5425 8.000625 42.56275 5.89275 44.289375 4.01775"></polygon>
                            <polygon fill="#7C84E8" points="42.5625 2.14275 48.15875 2.14275 48.15875 5.89275 42.5625 5.89275"></polygon>
                        </g>
                    </g>
                    <polygon id="Shape" fill="#FFD422" points="27.056625 6.03375 30.806625 6.03375 30.806625 12.008875 27.056625 12.008875"></polygon>
                    <polygon id="Shape" fill="#FFD422" points="36.669875 6.03375 40.419875 6.03375 40.419875 12.008875 36.669875 12.008875"></polygon>
                    <polygon id="Shape" fill="#FFF36C" points="17.443375 6.03375 21.193375 6.03375 21.193375 12.008875 17.443375 12.008875"></polygon>
                    <polygon id="Shape" fill="#FFF36C" points="7.830125 6.03375 11.580125 6.03375 11.580125 12.008875 7.830125 12.008875"></polygon>
                </g>
            </g>
        </g>
    </g>
</svg>