<svg width="24" height="25" viewBox="0 0 24 25" fill="none" xmlns="http://www.w3.org/2000/svg">
<path d="M21.75 3.87305H2.25C1.83516 3.87305 1.5 4.2082 1.5 4.62305V19.623C1.5 20.0379 1.83516 20.373 2.25 20.373H21.75C22.1648 20.373 22.5 20.0379 22.5 19.623V4.62305C22.5 4.2082 22.1648 3.87305 21.75 3.87305ZM20.8125 6.46992V18.6855H3.1875V6.46992L2.54063 5.96602L3.46172 4.78242L4.46484 5.56289H19.5375L20.5406 4.78242L21.4617 5.96602L20.8125 6.46992V6.46992ZM19.5375 5.56055L12 11.4199L4.4625 5.56055L3.45938 4.78008L2.53828 5.96367L3.18516 6.46758L11.1914 12.6926C11.4217 12.8715 11.7049 12.9686 11.9965 12.9686C12.2881 12.9686 12.5713 12.8715 12.8016 12.6926L20.8125 6.46992L21.4594 5.96602L20.5383 4.78242L19.5375 5.56055Z" fill="white"/>
</svg>
