<svg width="64" height="64" viewBox="0 0 64 64" fill="none" xmlns="http://www.w3.org/2000/svg">
<path d="M46.7125 33.4813C46.6875 29.2188 48.6187 26.0063 52.5187 23.6375C50.3375 20.5125 47.0375 18.7938 42.6875 18.4625C38.5687 18.1375 34.0625 20.8625 32.4125 20.8625C30.6687 20.8625 26.6812 18.575 23.5437 18.575C17.0687 18.675 10.1875 23.7375 10.1875 34.0375C10.1875 37.0813 10.7437 40.225 11.8562 43.4625C13.3437 47.725 18.7062 58.1688 24.3 58C27.225 57.9313 29.2937 55.925 33.1 55.925C36.7937 55.925 38.7062 58 41.9687 58C47.6125 57.9188 52.4625 48.425 53.875 44.15C46.3062 40.5813 46.7125 33.7 46.7125 33.4813ZM46.05 50.1688C45.1562 51.4125 44.2562 52.3938 43.4312 53.025C42.775 53.525 42.2687 53.7375 41.9312 53.75C41.3687 53.7438 40.825 53.6063 39.7625 53.2C39.6875 53.1688 39.6062 53.1375 39.5 53.1L39.225 52.9938C38.1375 52.575 37.4875 52.35 36.6562 52.1313C35.4937 51.8313 34.3375 51.6688 33.1 51.6688C31.8375 51.6688 30.65 51.825 29.4687 52.1188C28.6 52.3375 27.8687 52.5813 26.8 52.9813C26.7562 53 26.2937 53.175 26.1625 53.225C25.9437 53.3063 25.775 53.3688 25.6187 53.425C24.9687 53.65 24.5562 53.7438 24.1875 53.75C24.1437 53.75 24.1062 53.7438 24.075 53.7375C24.0062 53.725 23.9187 53.7 23.8187 53.6563C23.5375 53.5438 23.2 53.3375 22.8187 53.0438C21.9437 52.3625 20.9812 51.2938 20 49.925C18.2812 47.5125 16.6562 44.3125 15.875 42.0688C14.9125 39.2688 14.4375 36.5875 14.4375 34.0313C14.4375 30.2688 15.55 27.4063 17.4625 25.4625C19.1062 23.8 21.3187 22.8688 23.575 22.8188C23.9437 22.825 24.4812 22.9125 25.1625 23.1C25.7 23.2438 26.2875 23.4375 27.0812 23.7188C27.3187 23.8063 28.1375 24.1 28.2375 24.1375C28.7187 24.3125 29.0812 24.4375 29.4375 24.55C30.575 24.9125 31.4562 25.1125 32.4125 25.1125C33.3812 25.1125 34.2125 24.9063 35.3937 24.5C35.8375 24.35 37.45 23.75 37.7375 23.65C39.3375 23.0813 40.5187 22.775 41.5375 22.7C41.8375 22.675 42.1062 22.675 42.3625 22.6938C43.7812 22.8063 44.9937 23.0875 46.025 23.5563C43.675 26.2688 42.4625 29.5875 42.4687 33.4563C42.45 34.375 42.525 35.4375 42.7875 36.6938C43.1875 38.6 43.95 40.4875 45.1562 42.2563C46.075 43.6 47.2125 44.8125 48.575 45.8688C47.8562 47.35 46.975 48.8813 46.05 50.1688ZM40.1437 14.4188C43.3125 10.6563 43.025 7.23125 42.9312 6C40.1312 6.1625 36.8937 7.90625 35.05 10.05C33.0187 12.35 31.825 15.1938 32.0812 18.4C35.1062 18.6313 37.8687 17.075 40.1437 14.4188Z" fill="#ABE0F4"/>
</svg>
