<svg width="64" height="64" viewBox="0 0 64 64" fill="none" xmlns="http://www.w3.org/2000/svg">
<path d="M57.8507 25.3188L45.1632 9.4625C45.1254 9.416 45.0778 9.37843 45.0237 9.3525C44.9697 9.32656 44.9106 9.31291 44.8507 9.3125H19.1507C19.0319 9.3125 18.9132 9.36875 18.8382 9.4625L6.15068 25.3188C6.09194 25.3931 6.06104 25.4857 6.06332 25.5804C6.0656 25.6751 6.10093 25.7661 6.16318 25.8375L31.7007 54.5563C31.7757 54.6438 31.8882 54.6875 32.0007 54.6875C32.1132 54.6875 32.2194 54.6375 32.3007 54.5563L57.8382 25.8375C57.9004 25.7661 57.9358 25.6751 57.938 25.5804C57.9403 25.4857 57.9094 25.3931 57.8507 25.3188ZM40.3257 12.9L42.4757 21.2687L34.1944 12.9H40.3257ZM40.8382 24.0562H23.1632L32.0007 15.125L40.8382 24.0562ZM23.6757 12.9H29.8069L21.5194 21.2687L23.6757 12.9ZM20.3382 13.3375L17.5819 24.0562H11.7632L20.3382 13.3375ZM12.1632 27.1812H18.0632L25.9257 42.6625L12.1632 27.1812ZM32.0007 47.7125L21.5694 27.1812H42.4257L32.0007 47.7125ZM38.0694 42.6625L45.9382 27.1812H51.8382L38.0694 42.6625ZM46.4194 24.0562L43.6632 13.3375L52.2382 24.0562H46.4194Z" fill="#ABE0F4"/>
</svg>
