<svg width="25" height="24" viewBox="0 0 25 24" fill="none" xmlns="http://www.w3.org/2000/svg">
<path d="M14.4289 14.0977C14.8692 13.6137 15.1125 12.9824 15.1109 12.3281C15.1109 10.8773 13.9414 9.70312 12.5 9.70312C11.0586 9.70312 9.88906 10.8773 9.88906 12.3281C9.88906 13.0102 10.1469 13.6289 10.5711 14.0977C10.0628 14.4126 9.6383 14.846 9.33383 15.3606C9.02936 15.8753 8.85398 16.456 8.82266 17.0531C8.82138 17.0785 8.82529 17.1039 8.83415 17.1278C8.843 17.1516 8.85661 17.1734 8.87415 17.1918C8.89169 17.2102 8.91279 17.2249 8.93617 17.2349C8.95955 17.2449 8.98472 17.25 9.01016 17.25H10.0391C10.1375 17.25 10.2172 17.1727 10.2242 17.0742C10.3133 15.8883 11.3023 14.9531 12.5023 14.9531C13.7023 14.9531 14.6914 15.8906 14.7805 17.0742C14.7875 17.1727 14.8672 17.25 14.9656 17.25H15.9922C16.0176 17.25 16.0428 17.2449 16.0662 17.2349C16.0896 17.2249 16.1107 17.2102 16.1282 17.1918C16.1457 17.1734 16.1593 17.1516 16.1682 17.1278C16.1771 17.1039 16.181 17.0785 16.1797 17.0531C16.1141 15.8039 15.4297 14.7164 14.4289 14.0977ZM12.5 13.5469C11.832 13.5469 11.2883 13.0008 11.2883 12.3281C11.2883 11.6555 11.832 11.1094 12.5 11.1094C13.168 11.1094 13.7117 11.6555 13.7117 12.3281C13.7117 13.0008 13.168 13.5469 12.5 13.5469ZM22.25 3.25H18.5V1.9375C18.5 1.83437 18.4156 1.75 18.3125 1.75H17C16.8969 1.75 16.8125 1.83437 16.8125 1.9375V3.25H13.3438V1.9375C13.3438 1.83437 13.2594 1.75 13.1562 1.75H11.8438C11.7406 1.75 11.6562 1.83437 11.6562 1.9375V3.25H8.1875V1.9375C8.1875 1.83437 8.10313 1.75 8 1.75H6.6875C6.58437 1.75 6.5 1.83437 6.5 1.9375V3.25H2.75C2.33516 3.25 2 3.58516 2 4V21.5C2 21.9148 2.33516 22.25 2.75 22.25H22.25C22.6648 22.25 23 21.9148 23 21.5V4C23 3.58516 22.6648 3.25 22.25 3.25ZM21.3125 20.5625H3.6875V4.9375H6.5V6.25C6.5 6.35313 6.58437 6.4375 6.6875 6.4375H8C8.10313 6.4375 8.1875 6.35313 8.1875 6.25V4.9375H11.6562V6.25C11.6562 6.35313 11.7406 6.4375 11.8438 6.4375H13.1562C13.2594 6.4375 13.3438 6.35313 13.3438 6.25V4.9375H16.8125V6.25C16.8125 6.35313 16.8969 6.4375 17 6.4375H18.3125C18.4156 6.4375 18.5 6.35313 18.5 6.25V4.9375H21.3125V20.5625Z" fill="#CED0D6"/>
</svg>
