<svg width="48" height="49" viewBox="0 0 48 49" fill="none" xmlns="http://www.w3.org/2000/svg">
<path d="M41 5H6.5C5.67031 5 5 5.67031 5 6.5V41C5 41.8297 5.67031 42.5 6.5 42.5H41C41.8297 42.5 42.5 41.8297 42.5 41V6.5C42.5 5.67031 41.8297 5 41 5ZM39.5 39.5H30.8703V27.9781H35.7453L36.4766 22.3203H30.8703V18.7062C30.8703 17.0656 31.325 15.95 33.6734 15.95H36.6687V10.8875C36.1484 10.8172 34.3719 10.6625 32.3 10.6625C27.9781 10.6625 25.0203 13.3016 25.0203 18.1437V22.3156H20.1359V27.9734H25.025V39.5H8V8H39.5V39.5Z" fill="#36D5E8"/>
</svg>
