<svg width="48" height="49" viewBox="0 0 48 49" fill="none" xmlns="http://www.w3.org/2000/svg">
<path d="M39.1266 13.2387L42 10.4777V9.87305H32.0484L24.9563 27.6105L16.8891 9.87305H6.45469V10.4777L9.81094 14.5371C10.1391 14.8371 10.3078 15.2777 10.2656 15.7184V31.6699C10.3688 32.2465 10.1859 32.8324 9.78281 33.2496L6 37.8574V38.4527H16.7156V37.848L12.9375 33.2543C12.7351 33.0488 12.5828 32.7993 12.4926 32.5253C12.4023 32.2513 12.3765 31.9602 12.4172 31.6746V17.8746L21.825 38.4621H22.9172L31.0078 17.8746V34.2762C31.0078 34.7074 31.0078 34.7965 30.7266 35.0824L27.8156 37.909V38.5137H41.9344V37.909L39.1266 35.148C38.8828 34.9605 38.7563 34.6465 38.8078 34.3418V14.0449C38.7835 13.8943 38.8003 13.7399 38.8564 13.598C38.9125 13.4561 39.0058 13.332 39.1266 13.2387Z" fill="#36D5E8"/>
</svg>
