<svg width="48" height="49" viewBox="0 0 48 49" fill="none" xmlns="http://www.w3.org/2000/svg">
<path d="M41.2969 20.8605H24.3609V27.8215H34.0359C33.6188 30.0715 32.3531 31.9746 30.4453 33.2496C28.8328 34.3277 26.775 34.9652 24.3563 34.9652C19.6734 34.9652 15.7125 31.8012 14.2969 27.5496C13.9406 26.4715 13.7344 25.3184 13.7344 24.1324C13.7344 22.9465 13.9406 21.7934 14.2969 20.7152C15.7172 16.4684 19.6781 13.3043 24.3609 13.3043C27 13.3043 29.3672 14.2137 31.2328 15.9949L36.3891 10.834C33.2719 7.92773 29.2078 6.14648 24.3609 6.14648C17.3344 6.14648 11.2547 10.1777 8.29688 16.0559C7.07813 18.484 6.38438 21.2309 6.38438 24.1371C6.38438 27.0434 7.07813 29.7855 8.29688 32.2137C11.2547 38.0918 17.3344 42.123 24.3609 42.123C29.2172 42.123 33.2859 40.5105 36.2578 37.7637C39.6563 34.6324 41.6203 30.0199 41.6203 24.5402C41.6203 23.2652 41.5078 22.0418 41.2969 20.8605Z" fill="#36D5E8"/>
</svg>
