<svg width="48" height="49" viewBox="0 0 48 49" fill="none" xmlns="http://www.w3.org/2000/svg">
<path d="M23.9998 14.5083C18.6795 14.5083 14.3857 18.802 14.3857 24.1223C14.3857 29.4427 18.6795 33.7364 23.9998 33.7364C29.3201 33.7364 33.6139 29.4427 33.6139 24.1223C33.6139 18.802 29.3201 14.5083 23.9998 14.5083ZM23.9998 30.3708C20.5592 30.3708 17.7514 27.563 17.7514 24.1223C17.7514 20.6817 20.5592 17.8739 23.9998 17.8739C27.4404 17.8739 30.2482 20.6817 30.2482 24.1223C30.2482 27.563 27.4404 30.3708 23.9998 30.3708ZM34.0076 11.8739C32.7654 11.8739 31.7623 12.877 31.7623 14.1192C31.7623 15.3614 32.7654 16.3645 34.0076 16.3645C35.2498 16.3645 36.2529 15.3661 36.2529 14.1192C36.2533 13.8243 36.1955 13.5321 36.0828 13.2595C35.9701 12.987 35.8047 12.7393 35.5961 12.5307C35.3876 12.3221 35.1399 12.1568 34.8673 12.0441C34.5947 11.9314 34.3026 11.8735 34.0076 11.8739ZM42.7404 24.1223C42.7404 21.5348 42.7639 18.9708 42.6186 16.388C42.4732 13.388 41.7889 10.7255 39.5951 8.53172C37.3967 6.33328 34.7389 5.65359 31.7389 5.50828C29.1514 5.36297 26.5873 5.3864 24.0045 5.3864C21.417 5.3864 18.8529 5.36297 16.2701 5.50828C13.2701 5.65359 10.6076 6.33797 8.41387 8.53172C6.21543 10.7302 5.53574 13.388 5.39043 16.388C5.24512 18.9755 5.26856 21.5395 5.26856 24.1223C5.26856 26.7052 5.24512 29.2739 5.39043 31.8567C5.53574 34.8567 6.22012 37.5192 8.41387 39.713C10.6123 41.9114 13.2701 42.5911 16.2701 42.7364C18.8576 42.8817 21.4217 42.8583 24.0045 42.8583C26.592 42.8583 29.1561 42.8817 31.7389 42.7364C34.7389 42.5911 37.4014 41.9067 39.5951 39.713C41.7936 37.5145 42.4732 34.8567 42.6186 31.8567C42.7686 29.2739 42.7404 26.7098 42.7404 24.1223ZM38.6154 35.1755C38.2732 36.0286 37.8607 36.6661 37.1998 37.3223C36.5389 37.9833 35.9061 38.3958 35.0529 38.738C32.5873 39.7177 26.7326 39.4973 23.9998 39.4973C21.267 39.4973 15.4076 39.7177 12.942 38.7427C12.0889 38.4005 11.4514 37.988 10.7951 37.327C10.1342 36.6661 9.72168 36.0333 9.37949 35.1802C8.40449 32.7098 8.62481 26.8552 8.62481 24.1223C8.62481 21.3895 8.40449 15.5302 9.37949 13.0645C9.72168 12.2114 10.1342 11.5739 10.7951 10.9177C11.4561 10.2614 12.0889 9.84422 12.942 9.50203C15.4076 8.52703 21.267 8.74734 23.9998 8.74734C26.7326 8.74734 32.592 8.52703 35.0576 9.50203C35.9107 9.84422 36.5482 10.2567 37.2045 10.9177C37.8654 11.5786 38.2779 12.2114 38.6201 13.0645C39.5951 15.5302 39.3748 21.3895 39.3748 24.1223C39.3748 26.8552 39.5951 32.7098 38.6154 35.1755Z" fill="#36D5E8"/>
</svg>
