<svg width="48" height="49" viewBox="0 0 48 49" fill="none" xmlns="http://www.w3.org/2000/svg">
<path d="M39.7359 5.37305H8.26406C6.6 5.37305 5.25 6.72305 5.25 8.38711V39.859C5.25 41.523 6.6 42.873 8.26406 42.873H39.7359C41.4 42.873 42.75 41.523 42.75 39.859V8.38711C42.75 6.72305 41.4 5.37305 39.7359 5.37305ZM39.7359 39.873C18.7453 39.8684 8.25 39.8637 8.25 39.859C8.25469 18.8684 8.25938 8.37305 8.26406 8.37305C29.2547 8.37773 39.75 8.38242 39.75 8.38711C39.7453 29.3777 39.7406 39.873 39.7359 39.873ZM10.8094 19.4309H16.3734V37.3277H10.8094V19.4309ZM13.5938 16.984C15.3703 16.984 16.8187 15.5402 16.8187 13.759C16.8187 13.3355 16.7353 12.9161 16.5733 12.5248C16.4112 12.1336 16.1736 11.778 15.8742 11.4786C15.5747 11.1791 15.2192 10.9415 14.8279 10.7795C14.4366 10.6174 14.0173 10.534 13.5938 10.534C13.1702 10.534 12.7509 10.6174 12.3596 10.7795C11.9683 10.9415 11.6128 11.1791 11.3133 11.4786C11.0139 11.778 10.7763 12.1336 10.6142 12.5248C10.4522 12.9161 10.3687 13.3355 10.3687 13.759C10.3641 15.5402 11.8078 16.984 13.5938 16.984ZM25.4203 28.473C25.4203 26.1387 25.8656 23.8793 28.7578 23.8793C31.6078 23.8793 31.65 26.5465 31.65 28.623V37.3277H37.2094V27.5121C37.2094 22.6934 36.1688 18.9855 30.5391 18.9855C27.8344 18.9855 26.0203 20.4715 25.275 21.8777H25.2V19.4309H19.8609V37.3277H25.4203V28.473Z" fill="#36D5E8"/>
</svg>
