<svg width="48" height="49" viewBox="0 0 48 49" fill="none" xmlns="http://www.w3.org/2000/svg">
<path d="M43.5002 12.0434C42.0659 12.6621 40.5049 13.1074 38.8971 13.2809C40.5664 12.2892 41.8164 10.7224 42.4127 8.87463C40.8463 9.80645 39.1303 10.4599 37.3409 10.8059C36.593 10.0063 35.6884 9.36935 34.6835 8.93466C33.6787 8.49998 32.5951 8.2769 31.5002 8.27932C27.0706 8.27932 23.5081 11.8699 23.5081 16.2762C23.5081 16.8949 23.5831 17.5137 23.7049 18.109C17.0721 17.7621 11.1565 14.5934 7.22368 9.74182C6.50708 10.9658 6.13156 12.3594 6.13618 13.7778C6.13618 16.5528 7.54712 18.9996 9.69868 20.4387C8.43074 20.3888 7.19248 20.0402 6.08462 19.4215V19.5199C6.08462 23.4059 8.8315 26.6262 12.4924 27.3668C11.8051 27.5454 11.0979 27.6367 10.3877 27.6387C9.86743 27.6387 9.37525 27.5871 8.87837 27.5168C9.89087 30.6856 12.8393 32.9871 16.3502 33.0621C13.6034 35.2137 10.1627 36.4793 6.42681 36.4793C5.7565 36.4793 5.13775 36.4559 4.49556 36.3809C8.03931 38.6543 12.244 39.9668 16.7721 39.9668C31.4721 39.9668 39.5159 27.7887 39.5159 17.2184C39.5159 16.8715 39.5159 16.5246 39.4924 16.1778C41.0487 15.0387 42.4127 13.6278 43.5002 12.0434Z" fill="#36D5E8"/>
</svg>
