<svg width="64" height="64" viewBox="0 0 64 64" fill="none" xmlns="http://www.w3.org/2000/svg">
<path d="M28.0184 14.075C26.8559 14.075 26.0184 14.9125 26.0184 16.0688C26.0184 17.225 26.8621 18.0625 28.0184 18.0625C29.1809 18.0625 30.0184 17.225 30.0184 16.0688C30.0246 14.9188 29.1809 14.075 28.0184 14.075ZM52.6371 20.1C51.7746 19.2375 50.5934 18.7563 49.3121 18.7563C49.0684 18.7563 48.8496 18.7813 48.6434 18.8188V18.7563H48.4184C48.0746 16.8438 47.2559 14.975 46.0371 13.2938C44.8684 11.6875 43.3496 10.3 41.6121 9.2375L43.1809 7V6.79375C43.1809 6.74375 43.2059 6.65 43.2246 6.55625C43.2621 6.40625 43.3121 6.2125 43.3121 6C43.3121 4.84375 42.4684 4.00625 41.3121 4.00625C40.6996 4.00625 40.0934 4.3625 39.6934 4.96875L37.8621 7.6C35.9871 6.9875 33.9621 6.6625 31.9996 6.6625C30.0434 6.6625 28.0184 6.9875 26.1371 7.6L24.3121 4.9625C23.8996 4.3625 23.3059 4 22.6871 4C21.5246 4 20.6871 4.8375 20.6871 5.99375C20.6871 6.38125 20.8434 6.79375 21.1059 7.08125L22.5184 9.1C20.7246 10.1625 19.1746 11.5625 18.0059 13.1688C16.7934 14.85 16.0059 16.7188 15.7121 18.6313H15.3684V18.6938C15.1684 18.6563 14.9496 18.6313 14.6996 18.6313C13.4309 18.6313 12.2496 19.1 11.3809 19.9625C10.5184 20.825 10.0371 22 10.0371 23.275V37.9625C10.0371 39.2313 10.5059 40.4063 11.3746 41.2688C12.2371 42.1313 13.4246 42.6125 14.6996 42.6125C14.9434 42.6125 15.1621 42.5875 15.3684 42.55V48.3938C15.3684 50.2188 16.8621 51.7125 18.6934 51.7125H20.6871V55.3563C20.6871 56.625 21.1559 57.8 22.0246 58.6625C22.8871 59.525 24.0746 60.0063 25.3496 60.0063C26.6184 60.0063 27.7996 59.5375 28.6684 58.675C29.5309 57.8125 30.0121 56.6375 30.0121 55.3625V51.725H33.9996V55.3563C33.9996 56.625 34.4684 57.8 35.3371 58.6625C36.1996 59.525 37.3871 60.0063 38.6621 60.0063C39.9371 60.0063 41.1121 59.5375 41.9809 58.6563C42.8434 57.7938 43.3246 56.6188 43.3246 55.3438V51.7063H45.3184C47.1496 51.7063 48.6434 50.2188 48.6434 48.3875V42.675C48.8434 42.7125 49.0621 42.7375 49.3121 42.7375C50.5809 42.7375 51.7621 42.2688 52.6309 41.4063C53.4934 40.5438 53.9746 39.3688 53.9746 38.0938V23.4063C53.9684 22.1375 53.4996 20.9688 52.6371 20.1ZM15.3746 38.1C15.3746 38.525 15.1309 38.7625 14.7059 38.7625C14.2809 38.7625 14.0371 38.525 14.0371 38.1V23.4063C14.0371 22.9813 14.2809 22.7438 14.7059 22.7438C15.1309 22.7438 15.3746 22.9813 15.3746 23.4063V38.1ZM23.5684 13.3C25.9121 11.5938 28.8996 10.6563 32.0059 10.6563C35.1121 10.6563 38.0996 11.6 40.4434 13.3125C42.4684 14.7938 43.8309 16.7 44.3621 18.7813H19.6496C20.1809 16.6938 21.5559 14.7813 23.5684 13.3ZM26.0246 55.4688C25.9871 55.8188 25.7496 56.0125 25.3684 56.0125C24.9434 56.0125 24.6996 55.775 24.6996 55.35V51.7125H26.0246V55.4688ZM38.6684 56.0125C38.2434 56.0125 37.9996 55.775 37.9996 55.35V51.7125H39.3246V55.4688C39.2871 55.8188 39.0559 56.0125 38.6684 56.0125ZM44.6559 47.725H19.3684V22.75H44.6559V47.725ZM49.9809 38.1C49.9809 38.525 49.7371 38.7625 49.3121 38.7625C48.8871 38.7625 48.6434 38.525 48.6434 38.1V23.4063C48.6434 22.9813 48.8871 22.7438 49.3121 22.7438C49.7371 22.7438 49.9809 22.9813 49.9809 23.4063V38.1ZM36.0059 14.075C34.8434 14.075 34.0059 14.9125 34.0059 16.0688C34.0059 17.225 34.8496 18.0625 36.0059 18.0625C37.1684 18.0625 38.0121 17.225 38.0121 16.0625C38.0059 14.9 37.1746 14.075 36.0059 14.075Z" fill="#ABE0F4"/>
</svg>
