<svg width="64" height="64" viewBox="0 0 64 64" fill="none" xmlns="http://www.w3.org/2000/svg">
<path d="M30.5062 25.9188V18.9625L18.8062 26.75L24.0312 30.2375L30.5062 25.9188ZM46.3875 34.525V29.5375L42.65 32.0313L46.3875 34.525ZM32 4C16.5375 4 3.99997 16.5375 3.99997 32C3.99997 47.4625 16.5375 60 32 60C47.4625 60 60 47.4625 60 32C60 16.5375 47.4625 4 32 4ZM49.375 37.3125C49.375 37.3813 49.3687 37.4438 49.3625 37.5063C49.3625 37.5313 49.3562 37.55 49.35 37.5688C49.3412 37.6371 49.3244 37.7043 49.3 37.7688C49.2875 37.8063 49.275 37.8438 49.2625 37.875C49.25 37.9 49.2375 37.925 49.2312 37.95C49.2125 37.9813 49.2 38.0188 49.1812 38.05C49.1687 38.075 49.1562 38.0938 49.1375 38.1188C49.1187 38.15 49.0937 38.1813 49.075 38.2125C49.0562 38.2375 49.0437 38.2563 49.025 38.275C49 38.3 48.975 38.3313 48.95 38.3563C48.9312 38.375 48.9125 38.3938 48.8875 38.4125C48.8625 38.4375 48.8312 38.4625 48.8 38.4813C48.775 38.5 48.7562 38.5188 48.7312 38.5313C48.725 38.5375 48.7125 38.5438 48.7062 38.55L32.825 49.125C32.575 49.2938 32.2875 49.375 32 49.375C31.7062 49.375 31.4187 49.2875 31.1687 49.125L15.2875 38.5563C15.2812 38.55 15.2687 38.5438 15.2625 38.5375L15.1937 38.4875C15.1625 38.4625 15.1375 38.4438 15.1125 38.4188C15.0937 38.4 15.075 38.3813 15.05 38.3625C15.025 38.3375 15 38.3125 14.975 38.2813C14.9564 38.262 14.9397 38.2411 14.925 38.2188C14.9 38.1875 14.8812 38.1563 14.8625 38.125C14.85 38.1 14.8312 38.0813 14.8187 38.0563C14.8 38.025 14.7812 37.9875 14.7687 37.9563C14.7562 37.9313 14.7437 37.9063 14.7375 37.8813C14.725 37.8438 14.7125 37.8063 14.7 37.775C14.6937 37.75 14.6812 37.725 14.675 37.7C14.6625 37.6563 14.6562 37.6188 14.65 37.575C14.6437 37.5563 14.6437 37.5313 14.6375 37.5125C14.6312 37.45 14.625 37.3813 14.625 37.3188V26.7438C14.625 26.6813 14.6312 26.6125 14.6375 26.55C14.6437 26.5313 14.6437 26.5063 14.65 26.4875C14.6588 26.4191 14.6756 26.352 14.7 26.2875C14.7125 26.25 14.725 26.2125 14.7375 26.1813C14.75 26.1563 14.7625 26.1313 14.7687 26.1063C14.7812 26.075 14.8 26.0375 14.8187 26.0063C14.8312 25.9813 14.8437 25.9625 14.8625 25.9375C14.9 25.8813 14.9375 25.8313 14.975 25.7813C15 25.7563 15.025 25.725 15.05 25.7C15.0687 25.6813 15.0875 25.6625 15.1125 25.6438C15.1375 25.6188 15.1687 25.5938 15.1937 25.575C15.2187 25.5563 15.2375 25.5375 15.2625 25.525C15.2687 25.5188 15.2812 25.5125 15.2875 25.5063L31.1687 14.9375C31.6687 14.6063 32.325 14.6063 32.825 14.9375L48.7062 25.5063C48.7125 25.5125 48.725 25.5188 48.7312 25.525L48.8 25.575L48.8875 25.6438C48.9062 25.6625 48.925 25.6813 48.95 25.7C48.975 25.725 49 25.75 49.025 25.7813C49.0687 25.8313 49.1062 25.8813 49.1375 25.9375C49.15 25.9625 49.1687 25.9813 49.1812 26.0063C49.2 26.0375 49.2187 26.0688 49.2312 26.1063C49.2437 26.1313 49.2562 26.1563 49.2625 26.1813C49.275 26.2188 49.2875 26.2563 49.3 26.2875C49.3062 26.3125 49.3187 26.3375 49.325 26.3625C49.3375 26.4063 49.3437 26.4438 49.35 26.4875C49.3562 26.5063 49.3562 26.5313 49.3625 26.55C49.3687 26.6125 49.375 26.6813 49.375 26.7438V37.3125ZM33.4937 38.1438V45.1L45.1937 37.3125L39.9687 33.825L33.4937 38.1438ZM17.6125 29.5375V34.525L21.35 32.0313L17.6125 29.5375ZM32 28.5063L26.7187 32.0313L32 35.5563L37.2812 32.0313L32 28.5063ZM45.1937 26.75L33.4937 18.9625V25.9188L39.9687 30.2375L45.1937 26.75ZM24.0312 33.825L18.8062 37.3125L30.5062 45.1V38.1438L24.0312 33.825Z" fill="#ABE0F4"/>
</svg>
