<svg width="64" height="64" viewBox="0 0 64 64" fill="none" xmlns="http://www.w3.org/2000/svg">
<path d="M31.975 4.76856C16.5188 4.76231 4.00002 17.2748 4.00002 32.7186C4.00002 44.9311 11.8313 55.3123 22.7375 59.1248C24.2063 59.4935 23.9813 58.4498 23.9813 57.7373V52.8935C15.5 53.8873 15.1563 48.2748 14.5875 47.3373C13.4375 45.3748 10.7188 44.8748 11.5313 43.9373C13.4625 42.9436 15.4313 44.1873 17.7125 47.5561C19.3625 49.9998 22.5813 49.5873 24.2125 49.1811C24.5688 47.7123 25.3313 46.3998 26.3813 45.3811C17.5938 43.806 13.9313 38.4436 13.9313 32.0686C13.9313 28.9748 14.95 26.1311 16.95 23.8373C15.675 20.0561 17.0688 16.8186 17.2563 16.3373C20.8875 16.0123 24.6625 18.9373 24.9563 19.1686C27.0188 18.6123 29.375 18.3186 32.0125 18.3186C34.6625 18.3186 37.025 18.6248 39.1063 19.1873C39.8125 18.6498 43.3125 16.1373 46.6875 16.4436C46.8688 16.9248 48.2313 20.0873 47.0313 23.8186C49.0563 26.1186 50.0875 28.9873 50.0875 32.0873C50.0875 38.4748 46.4 43.8436 37.5875 45.3936C38.3423 46.1359 38.9417 47.0211 39.3505 47.9977C39.7594 48.9742 39.9696 50.0224 39.9688 51.0811V58.1123C40.0188 58.6748 39.9688 59.231 40.9063 59.231C51.975 55.4998 59.9438 45.0436 59.9438 32.7248C59.9438 17.2748 47.4188 4.76856 31.975 4.76856Z" fill="#ABE0F4"/>
</svg>
