<svg width="64" height="64" viewBox="0 0 64 64" fill="none" xmlns="http://www.w3.org/2000/svg">
<path d="M44.3499 13.125L44.3749 13.1125H44.3874L31.9999 6L19.6187 13.1125H19.6062L19.6499 13.1313L9.46869 19V45L31.9999 58L54.5312 45V19L44.3499 13.125ZM30.1687 52.725L21.2249 47.5625V38.8375L13.1249 34.2375V23.3063L30.1687 33.1375V52.725ZM14.8874 20.0938L23.3062 15.2313L31.9874 20.2125L40.6812 15.2188L49.1312 20.0938L32.0124 29.9688L14.8874 20.0938ZM50.8749 34.2688L42.8249 38.8375V47.5313L33.8312 52.7188V33.15L50.8749 23.3188V34.2688Z" fill="#ABE0F4"/>
</svg>
