<svg width="24" height="25" viewBox="0 0 24 25" fill="none" xmlns="http://www.w3.org/2000/svg">
<path d="M20.1215 18.0199C19.6794 16.9727 19.0378 16.0214 18.2325 15.2191C17.4296 14.4146 16.4785 13.7731 15.4317 13.3301C15.4223 13.3254 15.4129 13.323 15.4036 13.3184C16.8637 12.2637 17.8129 10.5457 17.8129 8.60742C17.8129 5.39648 15.2114 2.79492 12.0004 2.79492C8.78949 2.79492 6.18793 5.39648 6.18793 8.60742C6.18793 10.5457 7.13714 12.2637 8.5973 13.3207C8.58793 13.3254 8.57855 13.3277 8.56918 13.3324C7.51918 13.7754 6.57699 14.4105 5.76839 15.2215C4.96381 16.0244 4.32231 16.9755 3.87933 18.0223C3.44415 19.0471 3.20944 20.1458 3.18792 21.259C3.1873 21.284 3.19169 21.3089 3.20083 21.3322C3.20997 21.3555 3.22368 21.3767 3.24116 21.3946C3.25863 21.4125 3.27951 21.4268 3.30257 21.4365C3.32563 21.4462 3.3504 21.4512 3.37542 21.4512H4.78167C4.8848 21.4512 4.96683 21.3691 4.96918 21.2684C5.01605 19.459 5.74261 17.7645 7.02699 16.4801C8.35589 15.1512 10.1207 14.4199 12.0004 14.4199C13.8801 14.4199 15.645 15.1512 16.9739 16.4801C18.2582 17.7645 18.9848 19.459 19.0317 21.2684C19.034 21.3715 19.1161 21.4512 19.2192 21.4512H20.6254C20.6504 21.4512 20.6752 21.4462 20.6983 21.4365C20.7213 21.4268 20.7422 21.4125 20.7597 21.3946C20.7772 21.3767 20.7909 21.3555 20.8 21.3322C20.8092 21.3089 20.8136 21.284 20.8129 21.259C20.7895 20.1387 20.5575 19.0488 20.1215 18.0199V18.0199ZM12.0004 12.6387C10.9246 12.6387 9.91214 12.2191 9.15043 11.4574C8.38871 10.6957 7.96918 9.6832 7.96918 8.60742C7.96918 7.53164 8.38871 6.51914 9.15043 5.75742C9.91214 4.9957 10.9246 4.57617 12.0004 4.57617C13.0762 4.57617 14.0887 4.9957 14.8504 5.75742C15.6121 6.51914 16.0317 7.53164 16.0317 8.60742C16.0317 9.6832 15.6121 10.6957 14.8504 11.4574C14.0887 12.2191 13.0762 12.6387 12.0004 12.6387Z" fill="white"/>
</svg>
